# xmcd
#
# Track frame offsets: 
#        150
#        14432
#        28562
#        40642
#        52237
#        65152
#        79817
#        93097
#        106334
#        120232
#        133324
#        145946
#        156764
#        169334
#        179579
#        194306
#        204966
#        218809
#        232334
#        244359
#
# Disc length: 3426 seconds
#
# Revision: 0
# Processed by: cddbd v1.5.2PL0 Copyright (c) Steve Scherf et al.
# Submitted via: ExactAudioCopy v0.99pb4
#
DISCID=250d6014
DTITLE=Howlin' Wolf - The Blues Giant - Disc 1
DYEAR=2008
DGENRE=Blues
TTITLE0=Smokestack Lightnin'
TTITLE1=You Can't Beat It
TTITLE2=Don't Mess with My Baby
TTITLE3=Who Will Be Next?
TTITLE4=Forty Four
TTITLE5=I'll Be Around
TTITLE6=Evil
TTITLE7=Baby How Long
TTITLE8=Rockin' Daddy
TTITLE9=I'm the Wolf
TTITLE10=Neighbors
TTITLE11=Crazy About You Baby
TTITLE12=Streamline Woman
TTITLE13=All Night Boogie (All Night Long)
TTITLE14=Mama Died and Left Me
TTITLE15=Work for Your Money
TTITLE16=Just My Kind
TTITLE17=My Last Affair
TTITLE18=Stay Here Til My Baby Comes Back
TTITLE19=Oh! Red
EXTD=
EXTT0=
EXTT1=
EXTT2=
EXTT3=
EXTT4=
EXTT5=
EXTT6=
EXTT7=
EXTT8=
EXTT9=
EXTT10=
EXTT11=
EXTT12=
EXTT13=
EXTT14=
EXTT15=
EXTT16=
EXTT17=
EXTT18=
EXTT19=
PLAYORDER=
